<?xml version="1.0" encoding="utf-8"?>
<!-- Generator: Adobe Illustrator 14.0.0, SVG Export Plug-In . SVG Version: 6.00 Build 43363)  -->
<!DOCTYPE svg PUBLIC "-//W3C//DTD SVG 1.1//EN" "http://www.w3.org/Graphics/SVG/1.1/DTD/svg11.dtd">
<svg version="1.1" id="Layer_1" xmlns="http://www.w3.org/2000/svg" xmlns:xlink="http://www.w3.org/1999/xlink" x="0px" y="0px"
	 width="595.28px" height="841.89px" viewBox="0 0 595.28 841.89" enable-background="new 0 0 595.28 841.89" xml:space="preserve">
<path d="M376.944,460.884c1.224,0,2.254,1.227,3.092,3.674c0.839,2.451,1.258,5.932,1.258,10.441c0,5.93-0.428,11.475-1.281,16.629
	c-0.854,5.156-1.828,8.758-2.924,10.805c-1.096,2.045-3.006,4.398-5.729,7.059c-2.725,2.658-5.011,4.525-6.864,5.605
	s-3.746,1.621-5.681,1.621c-1.32,0-3.014-0.291-5.074-0.871c-1.58-0.42-2.739-0.629-3.481-0.629c-0.967,0-1.885,0.283-2.755,0.848
	c-0.87,0.562-1.307,1.328-1.307,2.295c0,2.354,2.048,3.529,6.141,3.529c3.189,0,6.404-0.861,9.643-2.586
	c3.239-1.725,7.123-4.787,11.65-9.186s9.08-9.33,13.656-14.793c4.576-5.461,8.049-10.973,10.418-16.531
	c2.367-5.559,3.553-10.271,3.553-14.139c0-2.578-0.371-4.527-1.111-5.85c-0.741-1.32-1.691-1.982-2.853-1.982
	c-0.71,0-1.312,0.314-1.812,0.941c-0.5,0.629-0.748,1.363-0.748,2.201c0,0.869,0.515,2.158,1.547,3.867
	c1.03,1.738,1.545,3.496,1.545,5.268c0,3.74-1.506,8.268-4.52,13.584c-3.014,5.318-6.099,9.701-9.257,13.148
	c1.771-6.445,2.658-13.551,2.658-21.318c0-5.961-0.717-10.4-2.151-13.316c-1.434-2.916-3.344-4.375-5.728-4.375
	c-1.87,0-3.618,1.039-5.245,3.119c-1.628,2.078-2.636,5.404-3.021,9.98h2.028C373.141,463.898,374.59,460.884,376.944,460.884"/>
<path d="M362.461,493.949c-1.643,1.516-3.014,2.271-4.107,2.271c-0.741,0-1.299-0.242-1.668-0.725
	c-0.37-0.484-0.557-1.209-0.557-2.176c0-1.451,0.467-3.578,1.402-6.383c0.707-2.127,1.176-3.592,1.401-4.396l15.564-51.24h-1.208
	c-2.515,1.062-6.431,1.645-11.747,1.74l-0.628,2.029h1.885c1.74,0,2.828,0.162,3.264,0.482c0.436,0.324,0.651,0.871,0.651,1.645
	c0,0.518-0.481,2.354-1.449,5.512l-11.312,37.318c-2.097,6.863-3.143,11.166-3.143,12.906c0,1.771,0.53,3.246,1.595,4.424
	c1.063,1.176,2.48,1.764,4.254,1.764c5.156,0,9.379-4.318,12.666-12.955h-2.127C365.684,489.841,364.106,492.435,362.461,493.949"/>
<path d="M344.143,458.177l4.446-14.646h-5.801l-4.447,14.646h-6.623l-0.676,2.127h6.67l-6.234,20.594
	c-1.998,6.543-2.996,10.57-2.996,12.086c0,1.771,0.488,3.238,1.474,4.398c0.983,1.16,2.296,1.738,3.94,1.738
	c2.094,0,4.404-1.264,6.936-3.795c2.529-2.527,4.777-6.193,6.744-10.996h-2.127c-1.483,3.32-3.159,6.074-5.028,8.266
	c-1.869,2.193-3.384,3.287-4.543,3.287c-0.646,0-1.136-0.201-1.476-0.604c-0.338-0.402-0.507-0.99-0.507-1.764
	c0-1.129,1.062-5.156,3.189-12.086l6.381-21.125h7.251l0.677-2.127H344.143L344.143,458.177z"/>
<path d="M314.149,492.958c-2.24,2.207-4.312,3.311-6.211,3.311c-1.322,0-2.451-0.547-3.386-1.643
	c-0.936-1.096-1.401-2.562-1.401-4.398c0-2.9,0.854-7.131,2.562-12.689c1.708-5.561,3.754-10.006,6.139-13.342
	c2.386-3.336,4.479-5.004,6.284-5.004c1.387,0,2.111,0.951,2.178,2.854c0.096,2.547,1.077,3.818,2.946,3.818
	c1.837,0,2.756-1.145,2.756-3.434c0-1.547-0.597-2.867-1.789-3.963c-1.19-1.096-2.643-1.645-4.35-1.645
	c-2.967,0-6.391,1.691-10.273,5.076c-3.883,3.383-6.896,7.533-9.038,12.447c-2.145,4.914-3.215,9.449-3.215,13.607
	c0,3.545,0.799,6.291,2.393,8.24c1.596,1.949,3.682,2.926,6.261,2.926c3.062,0,6.01-1.361,8.847-4.086
	c2.836-2.723,5.043-6.389,6.622-10.996h-1.934C318.186,487.779,316.388,490.751,314.149,492.958"/>
<path d="M291.912,487.666c-2.9,5.092-5.462,7.637-7.687,7.637c-0.58,0-1.015-0.168-1.305-0.506c-0.29-0.34-0.435-0.83-0.435-1.477
	c0-0.869,0.628-3.352,1.885-7.443l8.604-28.326h-5.801l-1.209,4.107c-0.322-1.609-0.975-2.818-1.957-3.625
	c-0.984-0.807-2.313-1.209-3.988-1.209c-2.869,0-6.325,1.678-10.369,5.027c-4.045,3.352-7.323,7.533-9.837,12.543
	c-2.514,5.014-3.771,9.709-3.771,14.092c0,3.256,0.813,5.842,2.44,7.76c1.627,1.916,3.569,2.875,5.825,2.875
	c2.417,0,5.003-1.217,7.759-3.648c2.756-2.434,4.858-4.889,6.309-7.371c-0.646,2.127-0.967,3.852-0.967,5.172
	c0,1.645,0.402,3.029,1.209,4.156c0.805,1.129,1.965,1.691,3.479,1.691c1.966,0,4.117-1.184,6.454-3.553
	c2.336-2.369,4.133-5.002,5.39-7.902H291.912z M281.181,477.32c-2.191,6.445-4.778,11.23-7.759,14.357
	c-2.981,3.125-5.535,4.688-7.662,4.688c-1.289,0-2.256-0.539-2.9-1.619c-0.645-1.078-0.967-2.684-0.967-4.811
	c0-4.896,2.111-11.229,6.333-18.996c4.222-7.766,8.298-11.648,12.23-11.648c1.288,0,2.278,0.475,2.973,1.426
	c0.692,0.951,1.039,2.104,1.039,3.455C284.468,466.492,283.372,470.876,281.181,477.32z"/>
<path d="M228.454,461.562c0.644,0,1.466,2.078,2.465,6.236l2.562,10.586l-9.136,12.133c-3.094,4.061-5.011,6.092-5.752,6.092
	c-0.549,0-0.822-0.467-0.822-1.4c0-1.258,0.757-3.609,2.272-7.059h-2.03c-1.644,3.352-2.466,6.01-2.466,7.977
	c0,1.996,0.773,2.996,2.321,2.996c0.772,0,1.61-0.348,2.513-1.039c0.902-0.693,2.562-2.602,4.979-5.729l8.75-11.359l2.078,8.121
	c0.999,3.934,1.935,6.582,2.805,7.953c0.869,1.367,1.998,2.053,3.384,2.053c3.448,0,6.348-4.074,8.701-12.229h-2.176
	c-0.645,2.256-1.378,4.084-2.199,5.486c-0.821,1.4-1.475,2.104-1.957,2.104c-0.55,0-1.024-0.484-1.427-1.451
	c-0.403-0.967-0.99-3.014-1.765-6.139l-2.949-11.748l9.138-11.262c2.255-2.934,3.722-4.398,4.398-4.398
	c0.515,0,0.773,0.354,0.773,1.062c0,1.354-0.548,3.771-1.645,7.252h2.031c1.257-3.096,1.885-5.881,1.885-8.363
	c0-1.74-0.725-2.609-2.175-2.609c-1.58,0-4.012,2.047-7.3,6.139l-7.734,9.619l-2.079-7.928c-0.838-3.158-1.579-5.252-2.223-6.283
	c-0.646-1.031-1.515-1.547-2.611-1.547c-1.643,0-3.343,1.258-5.099,3.77c-1.757,2.516-3.135,5.223-4.133,8.121h2.078
	C225.844,463.947,227.358,461.562,228.454,461.562"/>
<path d="M199.418,496.269c-1.579,0-2.772-0.514-3.577-1.547c-0.806-1.029-1.209-2.578-1.209-4.641c0-2.514,0.451-5.172,1.354-7.977
	c6.961-2.965,12.183-6.051,15.662-9.258c3.48-3.205,5.222-6.549,5.222-10.029c0-1.707-0.469-3.135-1.402-4.277
	c-0.935-1.145-2.305-1.717-4.109-1.717c-2.933,0-6.373,1.82-10.32,5.463c-3.948,3.643-6.993,7.977-9.137,13.004
	c-2.143,5.027-3.214,9.539-3.214,13.535c0,3.158,0.829,5.664,2.489,7.518c1.659,1.852,3.811,2.777,6.453,2.777
	c6.413,0,11.666-4.561,15.759-13.68h-2.32C207.716,492.66,203.833,496.269,199.418,496.269z M203.068,464.97
	c2.626-3.754,4.906-5.633,6.841-5.633c0.997,0,1.747,0.299,2.247,0.896c0.499,0.596,0.749,1.506,0.749,2.73
	c0,2.674-1.659,5.654-4.979,8.941c-3.32,3.287-7.058,5.865-11.215,7.734C198.322,473.615,200.441,468.724,203.068,464.97z"/>
<path d="M344.858,346.489c-2.2-5.119-5.2-9.579-9-13.38c-3.8-3.8-8.261-6.8-13.379-9c-5.121-2.199-10.562-3.301-16.32-3.301
	s-11.201,1.102-16.32,3.301c-5.12,2.2-9.581,5.2-13.38,9c-3.8,3.801-6.8,8.261-9,13.38c-2.201,5.121-3.3,10.56-3.3,16.319
	c0,5.76,1.099,11.201,3.3,16.32c2.2,5.121,5.2,9.581,9,13.38c3.799,3.801,8.26,6.801,13.38,9c5.119,2.199,10.562,3.3,16.32,3.3
	s11.199-1.101,16.32-3.3c5.118-2.199,9.579-5.199,13.379-9c3.8-3.799,6.8-8.259,9-13.38c2.2-5.119,3.301-10.56,3.301-16.32
	C348.158,357.048,347.058,351.61,344.858,346.489z M321.639,369.348c-0.882,2.04-2.082,3.821-3.601,5.341
	c-1.521,1.521-3.3,2.721-5.341,3.6c-2.039,0.881-4.219,1.32-6.539,1.32c-2.321,0-4.5-0.439-6.54-1.32
	c-2.04-0.879-3.821-2.079-5.341-3.6c-1.52-1.52-2.72-3.301-3.6-5.341c-0.881-2.04-1.32-4.219-1.32-6.54c0-2.319,0.439-4.5,1.32-6.54
	c0.88-2.039,2.08-3.818,3.6-5.34c1.52-1.519,3.301-2.719,5.341-3.6c2.04-0.879,4.219-1.32,6.54-1.32c2.32,0,4.5,0.441,6.539,1.32
	c2.041,0.881,3.819,2.081,5.341,3.6c1.519,1.521,2.719,3.301,3.601,5.34c0.879,2.04,1.319,4.222,1.319,6.54
	C322.958,365.129,322.518,367.308,321.639,369.348z"/>
<polygon points="187,402.768 212.08,402.768 212.08,372.048 234.04,402.768 255.16,402.768 255.16,322.729 230.08,322.729 
	230.08,353.569 208,322.729 187,322.729 "/>
<polygon points="366.518,402.768 392.917,402.768 392.917,343.729 407.678,343.729 407.678,322.729 351.757,322.729 
	351.757,343.729 366.518,343.729 366.518,402.768 "/>
</svg>
