<?xml version="1.0" encoding="utf-8"?>
<!-- Generator: Adobe Illustrator 14.0.0, SVG Export Plug-In . SVG Version: 6.00 Build 43363)  -->
<!DOCTYPE svg PUBLIC "-//W3C//DTD SVG 1.1//EN" "http://www.w3.org/Graphics/SVG/1.1/DTD/svg11.dtd">
<svg version="1.1" id="Layer_1" xmlns="http://www.w3.org/2000/svg" xmlns:xlink="http://www.w3.org/1999/xlink" x="0px" y="0px"
	 width="595.28px" height="841.89px" viewBox="0 0 595.28 841.89" enable-background="new 0 0 595.28 841.89" xml:space="preserve">
<polygon points="362.979,564.979 399.899,564.979 399.899,554.255 375.459,554.255 375.459,547.04 397.3,547.04 397.3,537.095 
	375.459,537.095 375.459,530.205 399.574,530.205 399.574,519.479 362.979,519.479 "/>
<path d="M334.834,565.824c12.936,0,21.32-6.435,21.32-21.125v-25.22H343.35v25.61c0,6.37-3.314,9.359-8.385,9.359
	s-8.385-3.119-8.385-9.685v-25.285h-12.806v25.545C313.774,559.26,321.899,565.824,334.834,565.824"/>
<path d="M287.581,565.89c8.255,0,14.951-3.055,19.76-7.02v-20.476h-20.93v9.23h8.97v5.524c-1.885,1.235-4.225,1.885-7.28,1.885
	c-7.215,0-12.35-5.265-12.35-12.609v-0.13c0-6.955,5.07-12.48,11.635-12.48c4.485,0,7.735,1.561,10.985,4.29l7.411-8.905
	c-4.811-4.159-10.466-6.63-18.46-6.63c-14.105,0-24.505,10.4-24.505,23.66v0.13C262.815,556.14,273.411,565.89,287.581,565.89"/>
<path d="M243.835,519.154h-12.155l-19.37,45.825h13.26l3.25-8.125h17.55l3.315,8.125h13.52L243.835,519.154z M232.525,547.04
	l5.135-12.936l5.07,12.936H232.525z"/>
<polygon points="190.471,565.305 202.17,565.305 220.63,519.479 206.786,519.479 196.451,548.274 186.116,519.479 172.011,519.479 
	"/>
<polygon points="399.238,499.979 399.238,496.523 366.766,496.523 366.766,476.292 395.639,476.292 395.639,472.836 
	366.766,472.836 366.766,453.036 398.879,453.036 398.879,449.58 363.021,449.58 363.021,499.979 "/>
<path d="M338.903,474.06c4.104-1.656,8.567-5.112,8.567-11.952v-0.144c0-7.561-6.551-12.384-16.344-12.384h-20.808v50.399h21.888
	c10.872,0,18.072-5.328,18.072-13.752v-0.144C350.279,479.1,344.951,475.644,338.903,474.06z M314.062,453.036h16.992
	c8.064,0,12.601,3.743,12.601,9.287v0.145c0,6.696-5.399,10.368-12.96,10.368h-16.633V453.036z M346.463,486.228
	c0,6.336-5.472,10.296-14.111,10.296h-18.289v-20.231h17.064c9.936,0,15.336,3.6,15.336,9.792V486.228z"/>
<path d="M269.497,474.636c0-13.752-10.008-25.92-25.272-25.92c-15.264,0-25.416,12.312-25.416,26.063v0.145
	c0,13.752,10.008,25.92,25.272,25.92c15.264,0,25.416-12.312,25.416-26.064C269.569,474.708,269.569,474.708,269.497,474.636z
	 M265.609,474.924c0,12.456-8.928,22.536-21.384,22.536s-21.528-10.225-21.528-22.681v-0.144c0-12.456,8.928-22.536,21.384-22.536
	s21.528,10.224,21.528,22.68V474.924z"/>
<polygon points="212.918,453.036 212.918,449.58 174.038,449.58 174.038,453.036 191.606,453.036 191.606,499.979 195.35,499.979 
	195.35,453.036 "/>
<polygon points="352.518,425.979 366.342,425.979 366.342,398.332 387.869,425.979 400.109,425.979 400.109,375.58 386.286,375.58 
	386.286,402.22 365.55,375.58 352.518,375.58 "/>
<path d="M317.814,374.571c-15.553,0-27.216,11.736-27.216,26.208v0.145c0,14.472,11.52,26.063,27.072,26.063
	c15.553,0,27.217-11.735,27.217-26.208v-0.144C344.887,386.164,333.366,374.571,317.814,374.571z M330.63,400.924
	c0,7.271-5.112,13.464-12.815,13.464c-7.633,0-12.889-6.336-12.889-13.608v-0.144c0-7.272,5.112-13.464,12.744-13.464
	c7.704,0,12.96,6.336,12.96,13.607V400.924z"/>
<rect x="268.71" y="375.58" width="14.04" height="50.399"/>
<path d="M240.199,426.844c12.24,0,20.376-6.12,20.376-16.416v-0.145c0-9.432-7.2-13.176-18.792-15.695
	c-6.984-1.584-8.712-2.592-8.712-4.896v-0.144c0-1.8,1.656-3.24,5.04-3.24c4.464,0,9.504,1.729,14.112,4.968l6.984-9.863
	c-5.472-4.393-12.168-6.696-20.736-6.696c-12.096,0-19.512,6.768-19.512,16.128v0.144c0,10.368,8.28,13.393,19.008,15.841
	c6.84,1.584,8.496,2.735,8.496,4.823v0.145c0,2.16-2.016,3.456-5.76,3.456c-5.832,0-11.376-2.088-16.344-6.048l-7.776,9.287
	C222.775,424.036,231.271,426.844,240.199,426.844"/>
<path d="M193.616,426.844c12.24,0,20.376-6.12,20.376-16.416v-0.145c0-9.432-7.2-13.176-18.792-15.695
	c-6.984-1.584-8.712-2.592-8.712-4.896v-0.144c0-1.8,1.656-3.24,5.04-3.24c4.464,0,9.504,1.729,14.112,4.968l6.984-9.863
	c-5.472-4.393-12.168-6.696-20.736-6.696c-12.096,0-19.512,6.768-19.512,16.128v0.144c0,10.368,8.28,13.393,19.008,15.841
	c6.84,1.584,8.496,2.735,8.496,4.823v0.145c0,2.16-2.016,3.456-5.76,3.456c-5.832,0-11.376-2.088-16.344-6.048L170,418.491
	C176.192,424.036,184.688,426.844,193.616,426.844"/>
<rect x="384.953" y="303.58" width="14.041" height="50.399"/>
<polygon points="322.17,353.979 335.85,353.979 335.85,325.18 348.666,344.764 348.953,344.764 361.842,325.036 361.842,353.979 
	375.737,353.979 375.737,303.58 360.978,303.58 348.953,323.092 336.93,303.58 322.17,303.58 "/>
<path d="M304.026,336.412c6.265-2.664,10.368-7.776,10.368-15.48v-0.144c0-4.969-1.512-8.856-4.464-11.736
	c-3.384-3.456-8.712-5.472-16.416-5.472h-23.832v50.399h13.968v-15.264h5.976h0.144l10.151,15.264h16.129L304.026,336.412z
	 M300.354,321.796c0,3.672-2.736,5.976-7.488,5.976h-9.216v-12.096h9.144c4.68,0,7.56,2.016,7.56,5.976V321.796z"/>
<polygon points="221.659,353.979 262.555,353.979 262.555,342.1 235.482,342.1 235.482,334.107 259.674,334.107 259.674,323.092 
	235.482,323.092 235.482,315.46 262.194,315.46 262.194,303.58 221.659,303.58 "/>
<path d="M196.244,303.58h-21.6v50.399h13.968V339.58h6.912c12.528,0,21.672-6.265,21.672-18.145v-0.144
	C217.195,310.132,208.987,303.58,196.244,303.58z M203.228,322.084c0,3.96-3.024,6.552-7.992,6.552h-6.624v-13.32h6.552
	c5.04,0,8.064,2.305,8.064,6.624V322.084z"/>
</svg>
