<?xml version="1.0" encoding="utf-8"?>
<!-- Generator: Adobe Illustrator 14.0.0, SVG Export Plug-In . SVG Version: 6.00 Build 43363)  -->
<!DOCTYPE svg PUBLIC "-//W3C//DTD SVG 1.1//EN" "http://www.w3.org/Graphics/SVG/1.1/DTD/svg11.dtd">
<svg version="1.1" id="Layer_1" xmlns="http://www.w3.org/2000/svg" xmlns:xlink="http://www.w3.org/1999/xlink" x="0px" y="0px"
	 width="595.28px" height="841.89px" viewBox="0 0 595.28 841.89" enable-background="new 0 0 595.28 841.89" xml:space="preserve">
<path d="M369.454,542.99c-2.179,1.234-3.833,1.853-4.966,1.853c-0.82,0-1.689-0.362-2.607-1.084
	c-1.113-0.859-2.051-1.289-2.812-1.289c-0.723,0-1.328,0.219-1.816,0.659c-0.488,0.439-0.732,1.03-0.732,1.772
	c0,0.898,0.406,1.62,1.215,2.168c0.812,0.547,1.9,0.82,3.268,0.82c6.523,0,13.125-4.26,19.805-12.777
	c6.68-8.52,10.02-15.462,10.02-20.829c0-1.387-0.298-2.488-0.895-3.309c-0.596-0.819-1.361-1.229-2.299-1.229
	c-0.703,0-1.285,0.254-1.742,0.762c-0.461,0.508-0.689,1.113-0.689,1.816c0,0.527,0.273,1.309,0.82,2.344
	c0.586,1.133,0.879,2.285,0.879,3.457c0,4.375-2.49,9.668-7.471,15.879l-4.541-20.156c-0.625-2.734-1.709-4.102-3.252-4.102
	c-1.328,0-2.734,0.688-4.219,2.065s-2.695,3.696-3.633,6.958h1.846c0.43-1.465,0.986-2.69,1.67-3.677s1.348-1.479,1.992-1.479
	c0.625,0,1.201,1.143,1.729,3.428l4.834,20.918C373.766,540.077,371.633,541.755,369.454,542.99"/>
<path d="M360.826,528.612c-1.348,2.09-2.305,3.389-2.871,3.896s-1.084,0.762-1.553,0.762c-0.391,0-0.684-0.117-0.879-0.352
	s-0.293-0.576-0.293-1.025c0-0.508,0.342-1.875,1.025-4.102l4.365-14.326c0.508-1.621,0.879-2.744,1.113-3.369h-2.637l-1.172,2.402
	c-0.877-0.947-1.813-1.652-2.809-2.117c-0.995-0.463-2.049-0.695-3.16-0.695c-3.634,0-7.455,2.361-11.46,7.083
	c-4.006,4.722-6.009,9.067-6.009,13.036c0,1.976,0.557,3.671,1.67,5.088c1.113,1.418,2.793,2.127,5.039,2.127
	c2.285,0,4.342-0.889,6.168-2.668c1.826-1.778,3.189-3.693,4.088-5.747c-0.43,1.74-0.645,3.167-0.645,4.281
	c0,1.212,0.287,2.204,0.863,2.976s1.381,1.158,2.416,1.158c1.504,0,3.066-0.879,4.688-2.637s2.9-3.682,3.838-5.771H360.826z
	 M351.089,526.245c-2.452,4.489-5.008,6.732-7.665,6.732c-1.27,0-2.3-0.449-3.091-1.35c-0.791-0.899-1.187-2.073-1.187-3.521
	c0-2.737,1.289-6.116,3.867-10.136s5.303-6.029,8.174-6.029c1.193,0,2.088,0.322,2.686,0.969c0.598,0.645,0.895,1.623,0.895,2.933
	C354.768,518.289,353.542,521.756,351.089,526.245z"/>
<path d="M328.717,528.612c-1.543,3.027-2.969,4.541-4.277,4.541c-0.781,0-1.729-1.299-2.842-3.896l-2.314-5.244
	c4.043-1.035,6.841-2.314,8.395-3.838c1.551-1.523,2.328-3.213,2.328-5.069c0-1.581-0.537-2.87-1.611-3.866
	s-2.432-1.494-4.072-1.494c-3.457,0-7.188,2.178-11.191,6.533l6.562-21.445h-0.586c-2.324,0.43-5.352,0.645-9.082,0.645h-0.645
	l-0.645,2.051c0.547,0,0.977,0.01,1.289,0.029l1.611,0.088c1.406,0.059,2.109,0.518,2.109,1.376c0,0.313-0.312,1.515-0.938,3.604
	l-10.342,33.779h4.512l3.486-11.426l4.57-0.322l3.428,7.734c1.348,3.086,2.793,4.629,4.336,4.629c1.387,0,2.871-0.972,4.453-2.915
	s2.715-3.774,3.398-5.493H328.717z M310.992,523.28c1.289-3.633,3.037-6.23,5.244-7.793s4.189-2.344,5.947-2.344
	c1.016,0,1.82,0.288,2.416,0.864c0.597,0.576,0.895,1.245,0.895,2.007c0,1.738-1.172,3.307-3.516,4.702
	C319.635,522.113,315.973,522.968,310.992,523.28z"/>
<path d="M297.674,512.118c-1.3-1.582-3.114-2.373-5.441-2.373c-4.048,0-7.793,2.017-11.235,6.05
	c-3.441,4.033-5.162,8.13-5.162,12.29c0,1.914,0.263,3.467,0.792,4.658c0.528,1.191,1.427,2.203,2.698,3.032
	s2.787,1.245,4.547,1.245c3.852,0,7.441-1.987,10.765-5.962c3.324-3.975,4.987-8.12,4.987-12.437
	C299.625,515.868,298.974,513.7,297.674,512.118z M292.104,529.081c-1.81,3.828-4.056,5.742-6.737,5.742
	c-1.508,0-2.638-0.537-3.391-1.611c-0.754-1.074-1.13-2.676-1.13-4.805c0-1.895,0.406-4.292,1.218-7.192
	c0.812-2.901,2.016-5.151,3.611-6.753c1.595-1.601,3.156-2.402,4.683-2.402c1.331,0,2.407,0.615,3.229,1.846
	c0.822,1.23,1.233,2.646,1.233,4.248C294.82,521.61,293.915,525.253,292.104,529.081z"/>
<path d="M247.359,524.936c2.383,2.979,3.574,5.206,3.574,6.683c0,0.797-0.397,1.529-1.191,2.2c-0.795,0.67-1.702,1.005-2.722,1.005
	c-1.236,0-2.216-0.698-2.942-2.097c-0.879-1.747-1.816-2.621-2.812-2.621c-0.606,0-1.128,0.245-1.568,0.733
	c-0.439,0.488-0.659,1.094-0.659,1.816c0,1.23,0.616,2.266,1.849,3.105c1.233,0.839,2.769,1.26,4.609,1.26
	c2.289,0,4.363-0.684,6.222-2.052c1.859-1.368,2.789-3.293,2.789-5.774c0-1.329-0.233-2.491-0.699-3.488s-1.325-2.334-2.578-4.012
	c-1.898-2.574-3.062-4.207-3.491-4.897c-0.43-0.689-0.644-1.354-0.644-1.997c0-0.854,0.271-1.555,0.816-2.1
	c0.544-0.544,1.176-0.816,1.895-0.816c1.36,0,2.448,0.785,3.265,2.356c0.41,0.796,0.771,1.295,1.084,1.499
	c0.312,0.203,0.703,0.305,1.172,0.305c1.445,0,2.168-0.83,2.168-2.49c0-1.211-0.521-2.158-1.564-2.842
	c-1.043-0.683-2.412-1.025-4.108-1.025c-2.397,0-4.336,0.684-5.817,2.051c-1.482,1.367-2.222,3.232-2.222,5.596
	C243.785,519.423,244.976,521.957,247.359,524.936"/>
<path d="M239.596,512.528l0.761-2.432h-5.39l1.406-4.688h-2.666c-0.567,0.938-1.592,1.899-3.076,2.886
	c-1.485,0.986-3.223,1.587-5.215,1.802l-0.733,2.432h5.01l-5.332,17.432c-0.469,1.543-0.703,2.676-0.703,3.398
	c0,1.212,0.278,2.124,0.835,2.739s1.382,0.923,2.476,0.923c1.816,0,3.637-0.635,5.463-1.904c1.827-1.27,3.658-3.173,5.494-5.713
	h-2.256c-1.192,1.484-2.281,2.603-3.267,3.354c-0.986,0.752-1.87,1.128-2.651,1.128c-0.469,0-0.82-0.106-1.055-0.322
	c-0.234-0.215-0.351-0.536-0.351-0.967c0-0.566,0.205-1.523,0.615-2.871l5.244-17.197H239.596z"/>
<path d="M212.76,513.29c0.586,0,0.879,0.391,0.879,1.172c0,0.567-0.167,1.328-0.499,2.285l-4.453,12.891
	c-0.547,1.602-0.82,2.853-0.82,3.75c0,0.918,0.254,1.753,0.762,2.505c0.507,0.751,1.24,1.128,2.197,1.128
	c1.504,0,3.13-0.796,4.878-2.388s3.267-3.638,4.556-6.138h-1.963c-2.071,3.223-3.731,4.834-4.981,4.834
	c-0.488,0-0.732-0.302-0.732-0.908c0-0.352,0.185-1.055,0.556-2.109l4.512-13.125c0.586-1.699,0.879-3.105,0.879-4.219
	c0-0.879-0.259-1.636-0.776-2.271c-0.518-0.635-1.314-0.952-2.388-0.952c-3.398,0-6.445,2.773-9.141,8.32h1.817
	C209.664,514.882,211.236,513.29,212.76,513.29"/>
<path d="M217.828,499.96c0.586,0.586,1.289,0.879,2.109,0.879c0.821,0,1.519-0.293,2.095-0.879c0.576-0.586,0.864-1.289,0.864-2.109
	c0-0.859-0.283-1.576-0.849-2.153c-0.567-0.576-1.26-0.864-2.08-0.864c-0.84,0-1.553,0.298-2.139,0.894
	c-0.586,0.597-0.879,1.304-0.879,2.124S217.242,499.374,217.828,499.96"/>
<path d="M359.137,465.318c-0.714,0.752-1.324,1.128-1.832,1.128c-0.312,0-0.552-0.088-0.718-0.264s-0.249-0.439-0.249-0.791
	c0-0.371,0.176-1.191,0.527-2.461l9.727-35.098h-0.586c-2.266,0.43-5.234,0.645-8.906,0.645h-0.645l-0.557,2.051
	c0.527,0,0.947,0.011,1.26,0.029l1.553,0.088c1.387,0.059,2.08,0.527,2.08,1.406c0,0.312-0.312,1.592-0.938,3.838l-2.227,8.086
	c-0.762-0.41-1.553-0.718-2.373-0.923s-1.68-0.308-2.578-0.308c-4.062,0-7.935,2.314-11.615,6.943
	c-3.683,4.629-5.523,8.994-5.523,13.096c0,1.973,0.561,3.673,1.686,5.098c1.123,1.426,2.631,2.139,4.525,2.139
	c4.082,0,7.715-2.697,10.898-8.092c-0.625,1.818-0.938,3.274-0.938,4.368c0,1.251,0.303,2.189,0.908,2.814s1.514,0.938,2.725,0.938
	c1.542,0,3.086-0.869,4.629-2.607c1.543-1.737,2.695-3.574,3.457-5.508h-1.875C360.654,463.438,359.848,464.566,359.137,465.318z
	 M352.104,459.904c-2.353,4.187-4.809,6.278-7.367,6.278c-1.445,0-2.529-0.435-3.252-1.306c-0.723-0.87-1.084-2.176-1.084-3.916
	c0-3.247,1.19-6.729,3.574-10.444c2.383-3.716,4.912-5.574,7.588-5.574c1.25,0,2.242,0.425,2.974,1.276
	c0.733,0.851,1.099,1.99,1.099,3.418C355.635,452.297,354.458,455.719,352.104,459.904z"/>
<path d="M309.814,466.651c1.367-4.434,3.881-9.106,7.543-14.019c3.664-4.912,6.285-7.368,7.867-7.368
	c0.488,0,0.854,0.137,1.098,0.41c0.244,0.273,0.367,0.684,0.367,1.23c0,0.392-0.107,0.908-0.322,1.553l-4.951,14.443
	c-0.645,1.895-0.967,3.263-0.967,4.102c0,2.012,1.123,3.018,3.369,3.018c1.543,0,3.062-0.664,4.556-1.992s2.964-3.311,4.409-5.947
	h-1.846c-0.977,1.465-1.846,2.563-2.607,3.296s-1.416,1.099-1.963,1.099c-0.645,0-0.967-0.322-0.967-0.967
	c0-0.371,0.186-1.064,0.557-2.08l4.834-13.564c0.449-1.211,0.674-2.266,0.674-3.164c0-1.327-0.332-2.324-0.996-2.988
	c-0.664-0.663-1.67-0.996-3.018-0.996c-2.383,0-4.805,1.294-7.266,3.882s-5.107,6.294-7.939,11.118l2.549-7.354
	c0.566-1.621,0.85-3.096,0.85-4.424c0-2.129-0.967-3.193-2.9-3.193c-1.426,0-2.905,0.635-4.438,1.904
	c-1.535,1.271-3.132,3.174-4.791,5.713h2.08c0.918-1.25,1.723-2.188,2.418-2.812c0.692-0.625,1.283-0.938,1.771-0.938
	c0.762,0,1.143,0.439,1.143,1.318c0,0.254-0.146,0.889-0.439,1.904l-6.006,19.57h4.482L309.814,466.651z"/>
<path d="M299.326,461.612c-1.347,2.091-2.305,3.389-2.871,3.896c-0.567,0.508-1.084,0.762-1.553,0.762
	c-0.391,0-0.684-0.117-0.879-0.352s-0.293-0.576-0.293-1.025c0-0.508,0.342-1.875,1.026-4.102l4.365-14.326
	c0.508-1.621,0.879-2.744,1.113-3.369h-2.636l-1.172,2.402c-0.878-0.947-1.814-1.652-2.809-2.116
	c-0.995-0.464-2.048-0.696-3.16-0.696c-3.634,0-7.455,2.361-11.46,7.083c-4.006,4.722-6.009,9.067-6.009,13.036
	c0,1.975,0.557,3.671,1.67,5.089c1.113,1.417,2.793,2.126,5.039,2.126c2.285,0,4.342-0.889,6.168-2.668
	c1.827-1.778,3.189-3.694,4.088-5.746c-0.43,1.739-0.645,3.166-0.645,4.28c0,1.212,0.288,2.204,0.864,2.976
	c0.576,0.772,1.381,1.158,2.416,1.158c1.504,0,3.066-0.879,4.687-2.637s2.901-3.681,3.838-5.771H299.326z M289.589,459.245
	c-2.453,4.488-5.007,6.732-7.665,6.732c-1.27,0-2.3-0.45-3.091-1.35s-1.187-2.073-1.187-3.521c0-2.737,1.29-6.117,3.868-10.136
	c2.578-4.019,5.302-6.029,8.174-6.029c1.193,0,2.088,0.322,2.685,0.969c0.597,0.645,0.895,1.623,0.895,2.934
	C293.268,451.29,292.042,454.756,289.589,459.245z"/>
<rect x="204" y="453.058" width="60.703" height="2.695"/>
<path d="M329.76,403.05h1.967l8.709-21.123c0.723-1.738,1.289-2.846,1.699-3.325c0.41-0.478,1.182-0.825,2.314-1.04v-2.168h-9.844
	v2.168c2.383,0.039,3.574,0.957,3.574,2.754c0,0.801-0.156,1.563-0.469,2.285l-5.435,13.184l-5.28-13.213
	c-0.371-0.957-0.557-1.846-0.557-2.666c0-1.348,1.169-2.129,3.508-2.344v-2.168h-13.066v2.168c1.154,0,2.031,0.181,2.629,0.542
	c0.596,0.362,1.158,1.226,1.688,2.593l0.881,2.227l-5.974,13.243l-5.881-14.034c-0.347-0.8-0.521-1.611-0.521-2.432
	c0-1.328,0.996-2.041,2.988-2.139v-2.168h-11.016v2.168c0.82,0.176,1.426,0.552,1.816,1.128s0.84,1.489,1.348,2.739l8.721,21.621
	h2.047l7.555-17.08L329.76,403.05z"/>
<path d="M295.274,378.484c-2.686-2.51-5.982-3.765-9.888-3.765c-3.828,0-7.031,1.377-9.609,4.131s-3.867,5.899-3.867,9.434
	c0,3.906,1.308,7.345,3.926,10.312c2.617,2.969,5.927,4.453,9.931,4.453c3.809,0,7.017-1.381,9.624-4.146
	c2.608-2.764,3.911-6.177,3.911-10.238C299.303,384.388,297.959,380.994,295.274,378.484z M291.646,398.74
	c-1.491,1.408-3.202,2.112-5.132,2.112c-2.866,0-5.064-1.555-6.595-4.664c-1.53-3.109-2.295-6.354-2.295-9.739
	c0-3.304,0.633-5.719,1.9-7.245c1.267-1.524,2.993-2.287,5.177-2.287c2.944,0,5.21,1.555,6.799,4.665
	c1.589,3.108,2.383,6.677,2.383,10.705C293.882,395.182,293.137,397.333,291.646,398.74z"/>
<path d="M249.601,379.654c1.319-0.594,2.583-0.892,3.794-0.892c1.484,0,2.783,0.493,3.897,1.478c1.113,0.985,1.67,3.058,1.67,6.218
	v8.045c0,1.618-0.118,2.765-0.352,3.438s-0.737,1.225-1.509,1.653c-0.772,0.43-1.499,0.644-2.182,0.644h-0.791v2.168h14.238v-2.168
	c-0.708,0-1.47-0.19-2.286-0.571c-0.816-0.381-1.367-0.898-1.652-1.553c-0.285-0.653-0.427-1.86-0.427-3.618v-8.613
	c0-2.421-0.167-4.36-0.498-5.815c-0.333-1.455-1.192-2.705-2.579-3.75c-1.387-1.045-3.095-1.566-5.126-1.566
	c-1.993,0-3.848,0.427-5.567,1.28c-1.719,0.854-3.291,2.137-4.717,3.845v-5.097h-1.084l-8.027,2.798v1.348l4.072,2.343V394.5
	c0,1.678-0.127,2.854-0.381,3.527c-0.254,0.673-0.771,1.21-1.552,1.61c-0.782,0.399-1.612,0.6-2.491,0.6v2.168h14.356v-2.168h-0.85
	c-0.586,0-1.299-0.214-2.138-0.644c-0.84-0.429-1.368-0.999-1.582-1.711c-0.216-0.712-0.323-1.839-0.323-3.38v-12.171
	C246.92,381.143,248.282,380.25,249.601,379.654"/>
<path d="M226.588,381.28c2.773-2.381,5.204-3.621,7.294-3.719v-2.168h-14.853v2.168c2.695,0,4.043,0.762,4.043,2.285
	c0,0.84-0.674,1.885-2.022,3.135l-5.683,5.244l11.894,11.631c0.957,0.918,2.041,1.769,3.252,2.549h4.6v-2.549l-14.824-13.155
	L226.588,381.28z"/>
<path d="M213.609,360.687l-7.324,2.827v1.436l3.808,2.136v27.411c0,2.207-0.347,3.716-1.04,4.525
	c-0.693,0.812-1.616,1.216-2.768,1.216v2.168h13.213v-2.168c-0.718,0-1.48-0.186-2.285-0.557s-1.353-0.883-1.644-1.538
	c-0.291-0.654-0.437-1.87-0.437-3.647v-33.809H213.609z"/>
<path d="M379.752,311.411v-3.018h-8.115v-4.806h-2.033c-0.646,0.978-1.718,2.145-3.216,3.501c-1.498,1.358-2.933,2.253-4.302,2.682
	v1.641h4.512v19.395c0,1.68,0.41,2.974,1.23,3.882s2.334,1.362,4.541,1.362c1.211,0,3.789-0.343,7.734-1.025v-2.93
	c-1.363,0.215-2.822,0.322-4.38,0.322c-1.731,0-2.847-0.278-3.343-0.835s-0.744-1.694-0.744-3.413v-16.758H379.752z"/>
<path d="M358.277,300.542c0-1.914-0.541-3.521-1.626-4.819c-1.084-1.298-2.485-1.948-4.204-1.948c-1.074,0-1.959,0.293-2.652,0.879
	c-0.692,0.586-1.039,1.426-1.039,2.52c0,2.109,1.445,3.164,4.336,3.164c1.191,0,1.787,0.693,1.787,2.08
	c0,2.578-2.158,4.591-6.475,6.035l0.879,1.963C355.279,308.639,358.277,305.347,358.277,300.542"/>
<path d="M324.894,312.654c1.317-0.594,2.583-0.892,3.794-0.892c1.484,0,2.783,0.492,3.896,1.478s1.67,3.058,1.67,6.217v8.046
	c0,1.619-0.117,2.765-0.352,3.438s-0.738,1.224-1.509,1.653c-0.772,0.43-1.499,0.644-2.183,0.644h-0.791v2.168h14.238v-2.168
	c-0.709,0-1.471-0.191-2.285-0.571c-0.816-0.381-1.367-0.898-1.652-1.553s-0.428-1.86-0.428-3.618v-8.613
	c0-2.422-0.166-4.36-0.498-5.815s-1.191-2.705-2.578-3.75s-3.096-1.567-5.127-1.567c-1.992,0-3.848,0.428-5.566,1.281
	c-1.719,0.854-3.291,2.136-4.717,3.844v-5.096h-1.084l-8.027,2.798v1.348l4.072,2.343v13.232c0,1.679-0.127,2.854-0.381,3.528
	c-0.254,0.673-0.771,1.21-1.553,1.61c-0.781,0.399-1.611,0.6-2.49,0.6v2.168h14.355v-2.168h-0.85c-0.586,0-1.299-0.214-2.139-0.644
	s-1.367-0.999-1.582-1.711c-0.215-0.713-0.322-1.84-0.322-3.38v-12.172C322.213,314.143,323.576,313.25,324.894,312.654"/>
<path d="M303.711,311.484c-2.685-2.509-5.98-3.765-9.886-3.765c-3.829,0-7.032,1.377-9.61,4.131
	c-2.578,2.754-3.867,5.898-3.867,9.434c0,3.906,1.308,7.344,3.926,10.312c2.617,2.969,5.927,4.453,9.931,4.453
	c3.809,0,7.017-1.382,9.625-4.146c2.606-2.764,3.91-6.177,3.91-10.239C307.74,317.388,306.397,313.994,303.711,311.484z
	 M300.084,331.74c-1.492,1.409-3.204,2.112-5.133,2.112c-2.866,0-5.064-1.554-6.594-4.664c-1.531-3.109-2.296-6.355-2.296-9.738
	c0-3.305,0.633-5.72,1.901-7.246c1.267-1.524,2.992-2.287,5.176-2.287c2.944,0,5.21,1.556,6.799,4.664
	c1.589,3.109,2.384,6.679,2.384,10.706C302.32,328.182,301.574,330.332,300.084,331.74z"/>
<path d="M274.518,332.271c-0.957,0-1.592-0.309-1.904-0.923c-0.313-0.615-0.469-1.821-0.469-3.618v-34.043h-1.208l-8.255,2.593
	v0.996l4.424,2.545v9.071c-1.327-0.371-2.546-0.649-3.657-0.835c-1.112-0.186-2.127-0.278-3.043-0.278
	c-4.135,0-7.597,1.567-10.386,4.702s-4.184,6.704-4.184,10.708c0,3.69,1.102,6.758,3.306,9.199s4.847,3.662,7.929,3.662
	c1.736,0,3.442-0.373,5.119-1.12c1.678-0.747,3.316-1.867,4.916-3.362v4.482h1.208l8.167-1.671v-2.372
	C275.602,332.183,274.947,332.271,274.518,332.271z M267.105,328.583c-0.897,1.151-1.936,2.015-3.115,2.591
	c-1.179,0.574-2.5,0.862-3.962,0.862c-2.886,0-5.128-1.253-6.727-3.76c-1.598-2.506-2.397-5.232-2.397-8.177
	c0-2.458,0.755-4.715,2.266-6.773c1.511-2.058,3.514-3.087,6.01-3.087c1.988,0,3.806,0.8,5.454,2.399
	c1.647,1.599,2.471,4.262,2.471,7.986V328.583z"/>
<path d="M205.934,296.733h0.996c0.762,0,1.655,0.19,2.681,0.571c1.025,0.381,1.758,0.996,2.197,1.846s0.659,2.358,0.659,4.526
	v22.529c0,2.207-0.22,3.721-0.659,4.541s-1.143,1.427-2.109,1.816c-0.967,0.391-1.89,0.586-2.769,0.586h-0.996v2.256h19.277v-2.256
	h-0.849c-0.762,0-1.661-0.19-2.696-0.571s-1.772-0.996-2.211-1.846c-0.44-0.85-0.66-2.358-0.66-4.526v-22.529
	c0-2.207,0.22-3.721,0.66-4.541c0.439-0.82,1.147-1.426,2.124-1.816c0.976-0.391,1.904-0.586,2.783-0.586h0.849v-2.256h-19.277
	V296.733z"/>
</svg>
